<svg width="76" height="76" fill="none" xmlns="http://www.w3.org/2000/svg"><path d="M31 38a7 7 0 1 1 14 0 7 7 0 0 1-14 0Zm-3.7 0a10.7 10.7 0 1 0 21.4 0 10.7 10.7 0 0 0-21.4 0Zm19.3-11a2.5 2.5 0 1 0 2.5-2.6 2.5 2.5 0 0 0-2.5 2.5Zm-17 27.9c-2-.1-3.1-.4-3.8-.7-1-.4-1.7-.8-2.4-1.6a6.4 6.4 0 0 1-1.6-2.4c-.3-.7-.6-1.8-.7-3.8a143.4 143.4 0 0 1 .7-20.6c.4-1 .8-1.7 1.6-2.4.7-.8 1.4-1.2 2.4-1.6.7-.3 1.8-.6 3.8-.7a143.5 143.5 0 0 1 20.6.7c1 .4 1.7.8 2.4 1.6.8.7 1.2 1.4 1.6 2.4.3.7.6 1.8.7 3.8a143.3 143.3 0 0 1-.7 20.6c-.4 1-.8 1.7-1.6 2.4-.7.8-1.4 1.2-2.4 1.6-.7.3-1.8.6-3.8.7a143.6 143.6 0 0 1-16.8 0Zm-.2-37.5c-2.2 0-3.7.4-5 1a10.1 10.1 0 0 0-6 6c-.6 1.3-1 2.8-1 5-.1 2.3-.2 3-.2 8.6s0 6.3.2 8.6c0 2.2.4 3.7 1 5a10.2 10.2 0 0 0 6 6c1.3.6 2.8 1 5 1a147.5 147.5 0 0 0 17.2 0c2.2 0 3.7-.4 5-1a10.2 10.2 0 0 0 6-6c.6-1.3 1-2.8 1-5a147.8 147.8 0 0 0 0-17.2c0-2.2-.4-3.7-1-5a10.2 10.2 0 0 0-6-6c-1.3-.6-2.8-1-5-1a147.4 147.4 0 0 0-17.2 0Z" fill="url(#a)"/><path d="M31 38a7 7 0 1 1 14 0 7 7 0 0 1-14 0Zm-3.7 0a10.7 10.7 0 1 0 21.4 0 10.7 10.7 0 0 0-21.4 0Zm19.3-11a2.5 2.5 0 1 0 2.5-2.6 2.5 2.5 0 0 0-2.5 2.5Zm-17 27.9c-2-.1-3.1-.4-3.8-.7-1-.4-1.7-.8-2.4-1.6a6.4 6.4 0 0 1-1.6-2.4c-.3-.7-.6-1.8-.7-3.8a143.4 143.4 0 0 1 .7-20.6c.4-1 .8-1.7 1.6-2.4.7-.8 1.4-1.2 2.4-1.6.7-.3 1.8-.6 3.8-.7a143.5 143.5 0 0 1 20.6.7c1 .4 1.7.8 2.4 1.6.8.7 1.2 1.4 1.6 2.4.3.7.6 1.8.7 3.8a143.3 143.3 0 0 1-.7 20.6c-.4 1-.8 1.7-1.6 2.4-.7.8-1.4 1.2-2.4 1.6-.7.3-1.8.6-3.8.7a143.6 143.6 0 0 1-16.8 0Zm-.2-37.5c-2.2 0-3.7.4-5 1a10.1 10.1 0 0 0-6 6c-.6 1.3-1 2.8-1 5-.1 2.3-.2 3-.2 8.6s0 6.3.2 8.6c0 2.2.4 3.7 1 5a10.2 10.2 0 0 0 6 6c1.3.6 2.8 1 5 1a147.5 147.5 0 0 0 17.2 0c2.2 0 3.7-.4 5-1a10.2 10.2 0 0 0 6-6c.6-1.3 1-2.8 1-5a147.8 147.8 0 0 0 0-17.2c0-2.2-.4-3.7-1-5a10.2 10.2 0 0 0-6-6c-1.3-.6-2.8-1-5-1a147.4 147.4 0 0 0-17.2 0Z" fill="url(#b)"/><defs><radialGradient id="a" cx="0" cy="0" r="1" gradientUnits="userSpaceOnUse" gradientTransform="matrix(54.2099 0 0 54.1774 22.8 59)"><stop offset=".1" stop-color="#FA8F21"/><stop offset=".8" stop-color="#D82D7E"/></radialGradient><radialGradient id="b" cx="0" cy="0" r="1" gradientUnits="userSpaceOnUse" gradientTransform="matrix(42.7249 0 0 42.6993 42.4 60.8)"><stop offset=".6" stop-color="#8C3AAA" stop-opacity="0"/><stop offset="1" stop-color="#8C3AAA"/></radialGradient></defs></svg>
