<svg width="246" height="53" fill="none" xmlns="http://www.w3.org/2000/svg"><path d="M9 5.3v20.2c0 2 .5 3.5 1.5 4.6 1 1.1 2.5 1.7 4.4 1.7 2 0 3.4-.6 4.4-1.7 1-1 1.5-2.6 1.5-4.6V5.3h8.3v20.1c0 3-.7 5.6-2 7.6-1.2 2.1-3 3.7-5.1 4.8a16 16 0 0 1-7.2 1.5c-2.7 0-5-.5-7.2-1.5-2-1-3.7-2.6-5-4.7a15.2 15.2 0 0 1-1.8-7.7V5.3H9Zm42.1 6.6c3.2 0 5.7 1 7.5 3.1 2 2 2.9 4.8 2.9 8.4V39h-8.2V24.5c0-1.8-.5-3.2-1.4-4.2-1-1-2.2-1.5-3.7-1.5-1.6 0-2.9.5-3.8 1.5-1 1-1.4 2.4-1.4 4.2V39h-8.2V12.2H43v3.6c.9-1.2 2-2.1 3.4-2.8 1.4-.7 3-1 4.7-1Zm20.2-2.5c-1.4 0-2.6-.4-3.6-1.2-.9-.9-1.3-2-1.3-3.2 0-1.3.4-2.3 1.3-3.2A5 5 0 0 1 71.3.6c1.4 0 2.6.4 3.4 1.2A4 4 0 0 1 76.1 5c0 1.3-.4 2.3-1.4 3.2-.8.8-2 1.2-3.4 1.2Zm4 2.8V39h-8.1V12.2h8.2ZM94 5.3c3.6 0 6.7.7 9.4 2.1 2.6 1.4 4.7 3.4 6.1 6 1.5 2.5 2.2 5.4 2.2 8.8 0 3.2-.7 6.2-2.2 8.7a14.8 14.8 0 0 1-6.2 6A19.5 19.5 0 0 1 94 39H81.3V5.3H94Zm-.5 26.6a10 10 0 0 0 7.3-2.5c1.7-1.7 2.6-4.1 2.6-7.2 0-3.2-1-5.6-2.6-7.3a9.8 9.8 0 0 0-7.3-2.6h-3.9V32h4Zm48-6.7-.1 2.4h-18.6c.2 1.6.7 3 1.6 3.8a5 5 0 0 0 3.5 1.3c2 0 3.5-.9 4.3-2.6h8.7a12 12 0 0 1-6.8 8c-1.8.9-3.7 1.3-5.9 1.3-2.6 0-5-.6-7-1.7a12 12 0 0 1-4.8-4.8c-1.2-2-1.7-4.5-1.7-7.3s.5-5.2 1.6-7.3a12 12 0 0 1 4.8-4.8c2-1.1 4.4-1.7 7.1-1.7 2.6 0 4.9.6 7 1.7 2 1 3.5 2.6 4.6 4.6a14 14 0 0 1 1.7 7ZM133 23c0-1.4-.4-2.5-1.4-3.3-1-.9-2.2-1.3-3.6-1.3s-2.5.4-3.5 1.2c-1 .8-1.5 2-1.7 3.4H133Zm23.7 16.4c-2.4 0-4.4-.4-6.3-1.2-1.8-.8-3.2-1.9-4.3-3.3-1-1.4-1.6-3-1.8-4.7h8.1c.1 1 .6 1.7 1.3 2.3.8.5 1.8.8 2.9.8a4 4 0 0 0 2.3-.5c.6-.5.9-1 .9-1.6 0-.8-.4-1.4-1.2-1.7-.8-.4-2.1-.8-3.9-1.3-2-.4-3.5-.9-4.8-1.3a8.6 8.6 0 0 1-3.3-2.4c-1-1-1.4-2.5-1.4-4.4 0-1.5.4-2.9 1.2-4.1a8.7 8.7 0 0 1 3.8-3c1.7-.8 3.6-1.2 5.9-1.2 3.4 0 6 .9 8 2.5 1.9 1.7 3 3.9 3.3 6.7h-7.6c-.1-1-.6-1.7-1.3-2.3-.6-.5-1.5-.8-2.6-.8-1 0-1.7.2-2.3.6-.5.4-.7.9-.7 1.5 0 .8.4 1.3 1.2 1.7.8.4 2 .8 3.8 1.2 2 .5 3.6 1 4.9 1.5 1.2.5 2.3 1.3 3.2 2.4 1 1.1 1.5 2.6 1.5 4.4a7 7 0 0 1-1.3 4.2 8.6 8.6 0 0 1-3.8 3c-1.7.6-3.6 1-5.7 1Zm20-30c-1.5 0-2.7-.4-3.6-1.2-.9-.9-1.3-2-1.3-3.2 0-1.3.4-2.3 1.3-3.2a5 5 0 0 1 3.6-1.2c1.4 0 2.5.4 3.4 1.2a4 4 0 0 1 1.4 3.2c0 1.3-.4 2.3-1.4 3.2-.9.8-2 1.2-3.4 1.2Zm4 2.8V39h-8.2V12.2h8.2Zm16.2-.4c1.9 0 3.5.4 5 1.2 1.4.8 2.5 1.8 3.2 3v-3.8h8.2V39c0 2.4-.5 4.6-1.5 6.6a11 11 0 0 1-4.4 4.8c-2 1.2-4.5 1.8-7.5 1.8-4 0-7.1-1-9.6-2.8a10.5 10.5 0 0 1-4.2-7.6h8c.3 1 1 1.8 2 2.4.9.6 2 .9 3.5.9 1.7 0 3-.5 4-1.5s1.5-2.5 1.5-4.6v-3.8a9.3 9.3 0 0 1-8.2 4.2 11 11 0 0 1-10.3-6.5c-1-2.2-1.5-4.6-1.5-7.3 0-2.8.5-5.2 1.5-7.3 1-2 2.5-3.7 4.3-4.8a11 11 0 0 1 6-1.7Zm8.2 13.8c0-2-.5-3.7-1.7-4.8a5.5 5.5 0 0 0-4.1-1.8c-1.7 0-3 .6-4.2 1.8a6.6 6.6 0 0 0-1.7 4.8 7 7 0 0 0 1.7 4.9 5.6 5.6 0 0 0 4.2 1.7c1.6 0 3-.6 4.1-1.7a6.7 6.7 0 0 0 1.7-4.9ZM235.6 12c3.1 0 5.6 1 7.5 3.1 1.9 2 2.8 4.8 2.8 8.4V39h-8.1V24.5c0-1.8-.5-3.2-1.4-4.2-1-1-2.2-1.5-3.8-1.5-1.6 0-2.8.5-3.7 1.5-1 1-1.4 2.4-1.4 4.2V39h-8.2V12.2h8.2v3.6c.8-1.2 2-2.1 3.3-2.8 1.4-.7 3-1 4.8-1Z" fill="#0E0578" style="mix-blend-mode:darken"/></svg>
